<?xml version="1.0" encoding="UTF-8" standalone="no"?>
<!-- Created with Inkscape (http://www.inkscape.org/) -->

<svg
   version="1.1"
   id="svg1"
   width="1333.3333"
   height="1333.3333"
   viewBox="0 0 1333.3333 1333.3333"
   sodipodi:docname="avatar-icon3-vectorportal.eps"
   xmlns:inkscape="http://www.inkscape.org/namespaces/inkscape"
   xmlns:sodipodi="http://sodipodi.sourceforge.net/DTD/sodipodi-0.dtd"
   xmlns="http://www.w3.org/2000/svg"
   xmlns:svg="http://www.w3.org/2000/svg">
  <defs
     id="defs1" />
  <sodipodi:namedview
     id="namedview1"
     pagecolor="#ffffff"
     bordercolor="#000000"
     borderopacity="0.25"
     inkscape:showpageshadow="2"
     inkscape:pageopacity="0.0"
     inkscape:pagecheckerboard="0"
     inkscape:deskcolor="#d1d1d1">
    <inkscape:page
       x="0"
       y="0"
       inkscape:label="1"
       id="page1"
       width="1333.3333"
       height="1333.3333"
       margin="0"
       bleed="0" />
  </sodipodi:namedview>
  <g
     id="g1"
     inkscape:groupmode="layer"
     inkscape:label="1">
    <g
       id="group-R5">
      <path
         id="path2"
         d="M 10000,0 H 0 V 10000 H 10000 V 0"
         style="fill:#ffffff;fill-opacity:1;fill-rule:evenodd;stroke:none"
         transform="matrix(0.13333333,0,0,-0.13333333,0,1333.3333)" />
      <path
         id="path3"
         d="m 4999.99,1000 c 2203.13,0 4000,1796.87 4000,4000 0,2203.13 -1796.87,4000 -4000,4000 -2203.11,0 -3999.98,-1796.87 -3999.98,-4000 0,-2203.13 1796.87,-4000 3999.98,-4000"
         style="fill:#f14a6e;fill-opacity:1;fill-rule:evenodd;stroke:none"
         transform="matrix(0.13333333,0,0,-0.13333333,0,1333.3333)" />
      <path
         id="path4"
         d="m 4999.99,1000 c 2203.13,0 4000,1796.87 4000,4000 0,2203.13 -1796.87,4000 -4000,4000 -2203.11,0 -3999.98,-1796.87 -3999.98,-4000 0,-2203.13 1796.87,-4000 3999.98,-4000 z"
         style="fill:none;stroke:#211d1d;stroke-width:183.816;stroke-linecap:round;stroke-linejoin:round;stroke-miterlimit:2.6131;stroke-dasharray:none;stroke-opacity:1"
         transform="matrix(0.13333333,0,0,-0.13333333,0,1333.3333)" />
      <path
         id="path5"
         d="m 4999.99,7609.91 c 1475.41,0 2671.46,-1145.98 2671.46,-2559.6 0,-578.24 -200.21,-1111.64 -537.71,-1540.18 H 2866.23 c -337.5,428.54 -537.71,961.94 -537.71,1540.18 0,1413.62 1196.05,2559.6 2671.47,2559.6"
         style="fill:#211d1d;fill-opacity:1;fill-rule:evenodd;stroke:none"
         transform="matrix(0.13333333,0,0,-0.13333333,0,1333.3333)" />
      <path
         id="path6"
         d="m 4999.99,7609.91 c 1475.41,0 2671.46,-1145.98 2671.46,-2559.6 0,-578.24 -200.21,-1111.64 -537.71,-1540.18 H 2866.23 c -337.5,428.54 -537.71,961.94 -537.71,1540.18 0,1413.62 1196.05,2559.6 2671.47,2559.6 z"
         style="fill:none;stroke:#211d1d;stroke-width:183.816;stroke-linecap:butt;stroke-linejoin:miter;stroke-miterlimit:2.6131;stroke-dasharray:none;stroke-opacity:1"
         transform="matrix(0.13333333,0,0,-0.13333333,0,1333.3333)" />
      <path
         id="path7"
         d="m 6797.71,1429.28 c -540.49,-272.53 -1151.1,-426.2 -1797.72,-426.2 -646.63,0 -1257.24,153.67 -1797.72,426.2 -4.75,53.38 -7.33,107.33 -7.33,161.93 0,996.91 808.14,1805.05 1805.05,1805.05 996.9,0 1805.04,-808.14 1805.04,-1805.05 0,-54.6 -2.58,-108.55 -7.32,-161.93"
         style="fill:#ffffff;fill-opacity:1;fill-rule:evenodd;stroke:none"
         transform="matrix(0.13333333,0,0,-0.13333333,0,1333.3333)" />
      <path
         id="path8"
         d="m 6797.71,1429.28 c -540.49,-272.53 -1151.1,-426.2 -1797.72,-426.2 -646.63,0 -1257.24,153.67 -1797.72,426.2 -4.75,53.38 -7.33,107.33 -7.33,161.93 0,996.91 808.14,1805.05 1805.05,1805.05 996.9,0 1805.04,-808.14 1805.04,-1805.05 0,-54.6 -2.58,-108.55 -7.32,-161.93 z"
         style="fill:none;stroke:#211d1d;stroke-width:183.816;stroke-linecap:round;stroke-linejoin:round;stroke-miterlimit:2.6131;stroke-dasharray:none;stroke-opacity:1"
         transform="matrix(0.13333333,0,0,-0.13333333,0,1333.3333)" />
      <path
         id="path9"
         d="m 4999.99,2261.33 c 399.1,0 724.62,325.51 724.62,724.62 0,399.11 -325.52,724.62 -724.62,724.62 -399.09,0 -724.6,-325.51 -724.6,-724.62 0,-399.11 325.51,-724.62 724.6,-724.62"
         style="fill:#fbc98c;fill-opacity:1;fill-rule:evenodd;stroke:none"
         transform="matrix(0.13333333,0,0,-0.13333333,0,1333.3333)" />
      <path
         id="path10"
         d="m 4999.99,2261.33 c 399.1,0 724.62,325.51 724.62,724.62 0,399.11 -325.52,724.62 -724.62,724.62 -399.09,0 -724.6,-325.51 -724.6,-724.62 0,-399.11 325.51,-724.62 724.6,-724.62 z"
         style="fill:none;stroke:#211d1d;stroke-width:183.816;stroke-linecap:butt;stroke-linejoin:miter;stroke-miterlimit:2.6131;stroke-dasharray:none;stroke-opacity:1"
         transform="matrix(0.13333333,0,0,-0.13333333,0,1333.3333)" />
      <path
         id="path11"
         d="m 6747.48,3833.3 c 249.6,0 453.19,203.58 453.19,453.18 0,249.6 -203.59,453.19 -453.19,453.19 -249.6,0 -453.18,-203.59 -453.18,-453.19 0,-249.6 203.58,-453.18 453.18,-453.18"
         style="fill:#fbc98c;fill-opacity:1;fill-rule:evenodd;stroke:none"
         transform="matrix(0.13333333,0,0,-0.13333333,0,1333.3333)" />
      <path
         id="path12"
         d="m 6747.48,3833.3 c 249.6,0 453.19,203.58 453.19,453.18 0,249.6 -203.59,453.19 -453.19,453.19 -249.6,0 -453.18,-203.59 -453.18,-453.19 0,-249.6 203.58,-453.18 453.18,-453.18 z"
         style="fill:none;stroke:#211d1d;stroke-width:183.816;stroke-linecap:round;stroke-linejoin:round;stroke-miterlimit:2.6131;stroke-dasharray:none;stroke-opacity:1"
         transform="matrix(0.13333333,0,0,-0.13333333,0,1333.3333)" />
      <path
         id="path13"
         d="m 3252.52,3833.3 c 249.59,0 453.18,203.58 453.18,453.18 0,249.6 -203.59,453.19 -453.18,453.19 -249.6,0 -453.2,-203.59 -453.2,-453.19 0,-249.6 203.6,-453.18 453.2,-453.18"
         style="fill:#fbc98c;fill-opacity:1;fill-rule:evenodd;stroke:none"
         transform="matrix(0.13333333,0,0,-0.13333333,0,1333.3333)" />
      <path
         id="path14"
         d="m 3252.52,3833.3 c 249.59,0 453.18,203.58 453.18,453.18 0,249.6 -203.59,453.19 -453.18,453.19 -249.6,0 -453.2,-203.59 -453.2,-453.19 0,-249.6 203.6,-453.18 453.2,-453.18 z"
         style="fill:none;stroke:#211d1d;stroke-width:183.816;stroke-linecap:round;stroke-linejoin:round;stroke-miterlimit:2.6131;stroke-dasharray:none;stroke-opacity:1"
         transform="matrix(0.13333333,0,0,-0.13333333,0,1333.3333)" />
      <path
         id="path15"
         d="m 4999.99,2968.75 c 987.06,0 1792.12,805.07 1792.12,1792.13 0,987.06 -805.06,1792.12 -1792.12,1792.12 -987.04,0 -1792.1,-805.06 -1792.1,-1792.12 0,-987.06 805.06,-1792.13 1792.1,-1792.13"
         style="fill:#fbc98c;fill-opacity:1;fill-rule:evenodd;stroke:none"
         transform="matrix(0.13333333,0,0,-0.13333333,0,1333.3333)" />
      <path
         id="path16"
         d="m 4999.99,2968.75 c 987.06,0 1792.12,805.07 1792.12,1792.13 0,987.06 -805.06,1792.12 -1792.12,1792.12 -987.04,0 -1792.1,-805.06 -1792.1,-1792.12 0,-987.06 805.06,-1792.13 1792.1,-1792.13 z"
         style="fill:none;stroke:#211d1d;stroke-width:183.816;stroke-linecap:butt;stroke-linejoin:miter;stroke-miterlimit:2.6131;stroke-dasharray:none;stroke-opacity:1"
         transform="matrix(0.13333333,0,0,-0.13333333,0,1333.3333)" />
      <path
         id="path17"
         d="m 4233.19,4053.85 c 128.12,0 232.64,104.51 232.64,232.63 0,128.15 -104.52,232.64 -232.64,232.64 -128.12,0 -232.64,-104.49 -232.64,-232.64 0,-128.12 104.52,-232.63 232.64,-232.63"
         style="fill:#211d1d;fill-opacity:1;fill-rule:evenodd;stroke:none"
         transform="matrix(0.13333333,0,0,-0.13333333,0,1333.3333)" />
      <path
         id="path18"
         d="m 5766.78,4053.85 c 128.12,0 232.64,104.51 232.64,232.63 0,128.15 -104.52,232.64 -232.64,232.64 -128.12,0 -232.63,-104.49 -232.63,-232.64 0,-128.12 104.51,-232.63 232.63,-232.63"
         style="fill:#211d1d;fill-opacity:1;fill-rule:evenodd;stroke:none"
         transform="matrix(0.13333333,0,0,-0.13333333,0,1333.3333)" />
      <path
         id="path19"
         d="M 3221.2,6653.25 H 6874.38 V 4902.49 h -794 l -75.31,530.8 -104.62,737.54 -104.62,-737.52 -75.31,-530.82 h -540.6 l -75.31,530.8 -104.62,737.54 -104.63,-737.52 -75.31,-530.82 h -540.6 l -75.31,530.8 -104.62,737.54 -104.62,-737.52 -75.31,-530.82 H 3221.2 v 1750.76"
         style="fill:#211d1d;fill-opacity:1;fill-rule:evenodd;stroke:none"
         transform="matrix(0.13333333,0,0,-0.13333333,0,1333.3333)" />
      <path
         id="path20"
         d="M 3221.2,6653.25 H 6874.38 V 4902.49 h -794 l -75.31,530.8 -104.62,737.54 -104.62,-737.52 -75.31,-530.82 h -540.6 l -75.31,530.8 -104.62,737.54 -104.63,-737.52 -75.31,-530.82 h -540.6 l -75.31,530.8 -104.62,737.54 -104.62,-737.52 -75.31,-530.82 H 3221.2 Z"
         style="fill:none;stroke:#211d1d;stroke-width:45.9517;stroke-linecap:butt;stroke-linejoin:miter;stroke-miterlimit:2.6131;stroke-dasharray:none;stroke-opacity:1"
         transform="matrix(0.13333333,0,0,-0.13333333,0,1333.3333)" />
      <path
         id="path21"
         d="m 3250.97,3410.27 c 133.65,0 242.65,109 242.65,242.65 0,133.63 -109,242.64 -242.65,242.64 -133.63,0 -242.63,-109.01 -242.63,-242.64 0,-133.65 109,-242.65 242.63,-242.65"
         style="fill:#fbd324;fill-opacity:1;fill-rule:evenodd;stroke:none"
         transform="matrix(0.13333333,0,0,-0.13333333,0,1333.3333)" />
      <path
         id="path22"
         d="m 3250.97,3410.27 c 133.65,0 242.65,109 242.65,242.65 0,133.63 -109,242.64 -242.65,242.64 -133.63,0 -242.63,-109.01 -242.63,-242.64 0,-133.65 109,-242.65 242.63,-242.65 z"
         style="fill:none;stroke:#211d1d;stroke-width:183.816;stroke-linecap:round;stroke-linejoin:round;stroke-miterlimit:2.6131;stroke-dasharray:none;stroke-opacity:1"
         transform="matrix(0.13333333,0,0,-0.13333333,0,1333.3333)" />
      <path
         id="path23"
         d="m 6749.04,3410.27 c 133.65,0 242.65,109 242.65,242.65 0,133.63 -109,242.64 -242.65,242.64 -133.63,0 -242.64,-109.01 -242.64,-242.64 0,-133.65 109.01,-242.65 242.64,-242.65"
         style="fill:#fbd324;fill-opacity:1;fill-rule:evenodd;stroke:none"
         transform="matrix(0.13333333,0,0,-0.13333333,0,1333.3333)" />
      <path
         id="path24"
         d="m 6749.04,3410.27 c 133.65,0 242.65,109 242.65,242.65 0,133.63 -109,242.64 -242.65,242.64 -133.63,0 -242.64,-109.01 -242.64,-242.64 0,-133.65 109.01,-242.65 242.64,-242.65 z"
         style="fill:none;stroke:#211d1d;stroke-width:183.816;stroke-linecap:round;stroke-linejoin:round;stroke-miterlimit:2.6131;stroke-dasharray:none;stroke-opacity:1"
         transform="matrix(0.13333333,0,0,-0.13333333,0,1333.3333)" />
    </g>
  </g>
</svg>
