<?xml version="1.0" encoding="UTF-8" standalone="no"?>
<!-- Created with Inkscape (http://www.inkscape.org/) -->

<svg
   version="1.1"
   id="svg1"
   width="1333.3333"
   height="1333.3333"
   viewBox="0 0 1333.3333 1333.3333"
   sodipodi:docname="avatar-icon8-vectorportal.eps"
   xmlns:inkscape="http://www.inkscape.org/namespaces/inkscape"
   xmlns:sodipodi="http://sodipodi.sourceforge.net/DTD/sodipodi-0.dtd"
   xmlns="http://www.w3.org/2000/svg"
   xmlns:svg="http://www.w3.org/2000/svg">
  <defs
     id="defs1" />
  <sodipodi:namedview
     id="namedview1"
     pagecolor="#ffffff"
     bordercolor="#000000"
     borderopacity="0.25"
     inkscape:showpageshadow="2"
     inkscape:pageopacity="0.0"
     inkscape:pagecheckerboard="0"
     inkscape:deskcolor="#d1d1d1">
    <inkscape:page
       x="0"
       y="0"
       inkscape:label="1"
       id="page1"
       width="1333.3333"
       height="1333.3333"
       margin="0"
       bleed="0" />
  </sodipodi:namedview>
  <g
     id="g1"
     inkscape:groupmode="layer"
     inkscape:label="1">
    <g
       id="group-R5">
      <path
         id="path2"
         d="M 10000,0 H 0 V 10000 H 10000 V 0"
         style="fill:#ffffff;fill-opacity:1;fill-rule:evenodd;stroke:none"
         transform="matrix(0.13333333,0,0,-0.13333333,0,1333.3333)" />
      <path
         id="path3"
         d="m 4999.99,1000 c 2203.13,0 4000,1796.87 4000,4000 0,2203.14 -1796.87,4000 -4000,4000 -2203.11,0 -3999.98,-1796.86 -3999.98,-4000 0,-2203.13 1796.87,-4000 3999.98,-4000"
         style="fill:#be89cb;fill-opacity:1;fill-rule:evenodd;stroke:none"
         transform="matrix(0.13333333,0,0,-0.13333333,0,1333.3333)" />
      <path
         id="path4"
         d="m 4999.99,1000 c 2203.13,0 4000,1796.87 4000,4000 0,2203.14 -1796.87,4000 -4000,4000 -2203.11,0 -3999.98,-1796.86 -3999.98,-4000 0,-2203.13 1796.87,-4000 3999.98,-4000 z"
         style="fill:none;stroke:#211d1d;stroke-width:183.816;stroke-linecap:round;stroke-linejoin:round;stroke-miterlimit:2.6131;stroke-dasharray:none;stroke-opacity:1"
         transform="matrix(0.13333333,0,0,-0.13333333,0,1333.3333)" />
      <path
         id="path5"
         d="m 3153.57,2891.75 c -225.32,466.58 -363.49,787.06 -454.47,1298.11 -812.25,4559.09 5400.89,4587.74 4607.42,28.47 -90.35,-519.15 -235.37,-866.23 -446.31,-1347.24 -781.31,336.35 -3062.52,339.58 -3706.64,20.66"
         style="fill:#87716c;fill-opacity:1;fill-rule:evenodd;stroke:none"
         transform="matrix(0.13333333,0,0,-0.13333333,0,1333.3333)" />
      <path
         id="path6"
         d="m 3153.57,2891.75 c -225.32,466.58 -363.49,787.06 -454.47,1298.11 -812.25,4559.09 5400.89,4587.74 4607.42,28.47 -90.35,-519.15 -235.37,-866.23 -446.31,-1347.24 -781.31,336.35 -3062.52,339.58 -3706.64,20.66 z"
         style="fill:none;stroke:#211d1d;stroke-width:183.816;stroke-linecap:round;stroke-linejoin:round;stroke-miterlimit:2.6131;stroke-dasharray:none;stroke-opacity:1"
         transform="matrix(0.13333333,0,0,-0.13333333,0,1333.3333)" />
      <path
         id="path7"
         d="m 6797.71,1429.28 c -540.49,-272.53 -1151.1,-426.2 -1797.72,-426.2 -646.63,0 -1257.24,153.67 -1797.72,426.2 -4.75,53.38 -7.33,107.33 -7.33,161.93 0,996.91 808.14,1805.05 1805.05,1805.05 996.9,0 1805.04,-808.14 1805.04,-1805.05 0,-54.6 -2.58,-108.55 -7.32,-161.93"
         style="fill:#a3dfc9;fill-opacity:1;fill-rule:evenodd;stroke:none"
         transform="matrix(0.13333333,0,0,-0.13333333,0,1333.3333)" />
      <path
         id="path8"
         d="m 6797.71,1429.28 c -540.49,-272.53 -1151.1,-426.2 -1797.72,-426.2 -646.63,0 -1257.24,153.67 -1797.72,426.2 -4.75,53.38 -7.33,107.33 -7.33,161.93 0,996.91 808.14,1805.05 1805.05,1805.05 996.9,0 1805.04,-808.14 1805.04,-1805.05 0,-54.6 -2.58,-108.55 -7.32,-161.93 z"
         style="fill:none;stroke:#211d1d;stroke-width:183.816;stroke-linecap:round;stroke-linejoin:round;stroke-miterlimit:2.6131;stroke-dasharray:none;stroke-opacity:1"
         transform="matrix(0.13333333,0,0,-0.13333333,0,1333.3333)" />
      <path
         id="path9"
         d="m 4999.99,2261.33 c 399.1,0 724.62,325.51 724.62,724.62 0,399.11 -325.52,724.62 -724.62,724.62 -399.09,0 -724.6,-325.51 -724.6,-724.62 0,-399.11 325.51,-724.62 724.6,-724.62"
         style="fill:#f9d9ce;fill-opacity:1;fill-rule:evenodd;stroke:none"
         transform="matrix(0.13333333,0,0,-0.13333333,0,1333.3333)" />
      <path
         id="path10"
         d="m 4999.99,2261.33 c 399.1,0 724.62,325.51 724.62,724.62 0,399.11 -325.52,724.62 -724.62,724.62 -399.09,0 -724.6,-325.51 -724.6,-724.62 0,-399.11 325.51,-724.62 724.6,-724.62 z"
         style="fill:none;stroke:#211d1d;stroke-width:183.816;stroke-linecap:butt;stroke-linejoin:miter;stroke-miterlimit:2.6131;stroke-dasharray:none;stroke-opacity:1"
         transform="matrix(0.13333333,0,0,-0.13333333,0,1333.3333)" />
      <path
         id="path11"
         d="m 6747.48,3833.3 c 249.6,0 453.19,203.59 453.19,453.18 0,249.6 -203.59,453.2 -453.19,453.2 -249.6,0 -453.18,-203.6 -453.18,-453.2 0,-249.59 203.58,-453.18 453.18,-453.18"
         style="fill:#f9d9ce;fill-opacity:1;fill-rule:evenodd;stroke:none"
         transform="matrix(0.13333333,0,0,-0.13333333,0,1333.3333)" />
      <path
         id="path12"
         d="m 6747.48,3833.3 c 249.6,0 453.19,203.59 453.19,453.18 0,249.6 -203.59,453.2 -453.19,453.2 -249.6,0 -453.18,-203.6 -453.18,-453.2 0,-249.59 203.58,-453.18 453.18,-453.18 z"
         style="fill:none;stroke:#211d1d;stroke-width:183.816;stroke-linecap:round;stroke-linejoin:round;stroke-miterlimit:2.6131;stroke-dasharray:none;stroke-opacity:1"
         transform="matrix(0.13333333,0,0,-0.13333333,0,1333.3333)" />
      <path
         id="path13"
         d="m 3252.52,3833.3 c 249.59,0 453.18,203.59 453.18,453.18 0,249.6 -203.59,453.2 -453.18,453.2 -249.6,0 -453.2,-203.6 -453.2,-453.2 0,-249.59 203.6,-453.18 453.2,-453.18"
         style="fill:#f9d9ce;fill-opacity:1;fill-rule:evenodd;stroke:none"
         transform="matrix(0.13333333,0,0,-0.13333333,0,1333.3333)" />
      <path
         id="path14"
         d="m 3252.52,3833.3 c 249.59,0 453.18,203.59 453.18,453.18 0,249.6 -203.59,453.2 -453.18,453.2 -249.6,0 -453.2,-203.6 -453.2,-453.2 0,-249.59 203.6,-453.18 453.2,-453.18 z"
         style="fill:none;stroke:#211d1d;stroke-width:183.816;stroke-linecap:round;stroke-linejoin:round;stroke-miterlimit:2.6131;stroke-dasharray:none;stroke-opacity:1"
         transform="matrix(0.13333333,0,0,-0.13333333,0,1333.3333)" />
      <path
         id="path15"
         d="m 4999.99,2968.75 c 987.06,0 1792.12,805.07 1792.12,1792.13 0,987.06 -805.06,1792.12 -1792.12,1792.12 -987.04,0 -1792.1,-805.06 -1792.1,-1792.12 0,-987.06 805.06,-1792.13 1792.1,-1792.13"
         style="fill:#f9d9ce;fill-opacity:1;fill-rule:evenodd;stroke:none"
         transform="matrix(0.13333333,0,0,-0.13333333,0,1333.3333)" />
      <path
         id="path16"
         d="m 4999.99,2968.75 c 987.06,0 1792.12,805.07 1792.12,1792.13 0,987.06 -805.06,1792.12 -1792.12,1792.12 -987.04,0 -1792.1,-805.06 -1792.1,-1792.12 0,-987.06 805.06,-1792.13 1792.1,-1792.13 z"
         style="fill:none;stroke:#211d1d;stroke-width:183.816;stroke-linecap:butt;stroke-linejoin:miter;stroke-miterlimit:2.6131;stroke-dasharray:none;stroke-opacity:1"
         transform="matrix(0.13333333,0,0,-0.13333333,0,1333.3333)" />
      <path
         id="path17"
         d="m 4640.76,3294.48 c -18.99,-175.54 734.96,-152.22 718.42,0 -46.42,283.78 -42.64,204.03 -361.31,179.26 -318.65,24.77 -310.69,104.52 -357.11,-179.26 z m 351.54,-679.97 c -1015.4,183.41 -1712.19,1000.4 -1697.95,1622.22 177.2,-240.88 671.14,-718.24 1093.46,-747.7 81.04,410.72 374.83,327.98 613.11,258.47 238.3,69.51 530.7,152.25 611.74,-258.47 366.28,13.13 797.51,348.67 1089.15,752 C 6720.33,3653.7 5990.45,2767.74 4992.3,2614.51 v 0"
         style="fill:#87716c;fill-opacity:1;fill-rule:evenodd;stroke:none"
         transform="matrix(0.13333333,0,0,-0.13333333,0,1333.3333)" />
      <path
         id="path18"
         d="m 4640.76,3294.48 c -18.99,-175.54 734.96,-152.22 718.42,0 -46.42,283.78 -42.64,204.03 -361.31,179.26 -318.65,24.77 -310.69,104.52 -357.11,-179.26 z m 351.54,-679.97 c -1015.4,183.41 -1712.19,1000.4 -1697.95,1622.22 177.2,-240.88 671.14,-718.24 1093.46,-747.7 81.04,410.72 374.83,327.98 613.11,258.47 238.3,69.51 530.7,152.25 611.74,-258.47 366.28,13.13 797.51,348.67 1089.15,752 C 6720.33,3653.7 5990.45,2767.74 4992.3,2614.51 Z"
         style="fill:none;stroke:#211d1d;stroke-width:183.816;stroke-linecap:round;stroke-linejoin:round;stroke-miterlimit:2.6131;stroke-dasharray:none;stroke-opacity:1"
         transform="matrix(0.13333333,0,0,-0.13333333,0,1333.3333)" />
      <path
         id="path19"
         d="m 5766.78,3941.51 c 189.99,0 344.97,154.98 344.97,344.97 0,189.99 -154.98,344.98 -344.97,344.98 -189.99,0 -344.97,-154.99 -344.97,-344.98 0,-189.99 154.98,-344.97 344.97,-344.97"
         style="fill:#ffffff;fill-opacity:1;fill-rule:evenodd;stroke:none"
         transform="matrix(0.13333333,0,0,-0.13333333,0,1333.3333)" />
      <path
         id="path20"
         d="m 5766.78,3941.51 c 189.99,0 344.97,154.98 344.97,344.97 0,189.99 -154.98,344.98 -344.97,344.98 -189.99,0 -344.97,-154.99 -344.97,-344.98 0,-189.99 154.98,-344.97 344.97,-344.97 z"
         style="fill:none;stroke:#211d1d;stroke-width:183.816;stroke-linecap:round;stroke-linejoin:round;stroke-miterlimit:2.6131;stroke-dasharray:none;stroke-opacity:1"
         transform="matrix(0.13333333,0,0,-0.13333333,0,1333.3333)" />
      <path
         id="path21"
         d="m 4592.51,4298.86 c 271.64,234.17 543.33,225.32 814.95,0"
         style="fill:none;stroke:#211d1d;stroke-width:183.816;stroke-linecap:round;stroke-linejoin:round;stroke-miterlimit:2.6131;stroke-dasharray:none;stroke-opacity:1"
         transform="matrix(0.13333333,0,0,-0.13333333,0,1333.3333)" />
      <path
         id="path22"
         d="m 3900.8,4385.07 -749.6,456.88"
         style="fill:none;stroke:#211d1d;stroke-width:183.816;stroke-linecap:round;stroke-linejoin:round;stroke-miterlimit:2.6131;stroke-dasharray:none;stroke-opacity:1"
         transform="matrix(0.13333333,0,0,-0.13333333,0,1333.3333)" />
      <path
         id="path23"
         d="m 6123.71,4385.07 749.61,456.88"
         style="fill:none;stroke:#211d1d;stroke-width:183.816;stroke-linecap:round;stroke-linejoin:round;stroke-miterlimit:2.6131;stroke-dasharray:none;stroke-opacity:1"
         transform="matrix(0.13333333,0,0,-0.13333333,0,1333.3333)" />
      <path
         id="path24"
         d="m 4233.19,3941.51 c 189.99,0 344.97,154.98 344.97,344.97 0,189.99 -154.98,344.98 -344.97,344.98 -189.99,0 -344.97,-154.99 -344.97,-344.98 0,-189.99 154.98,-344.97 344.97,-344.97"
         style="fill:#ffffff;fill-opacity:1;fill-rule:evenodd;stroke:none"
         transform="matrix(0.13333333,0,0,-0.13333333,0,1333.3333)" />
      <path
         id="path25"
         d="m 4233.19,3941.51 c 189.99,0 344.97,154.98 344.97,344.97 0,189.99 -154.98,344.98 -344.97,344.98 -189.99,0 -344.97,-154.99 -344.97,-344.98 0,-189.99 154.98,-344.97 344.97,-344.97 z"
         style="fill:none;stroke:#211d1d;stroke-width:183.816;stroke-linecap:round;stroke-linejoin:round;stroke-miterlimit:2.6131;stroke-dasharray:none;stroke-opacity:1"
         transform="matrix(0.13333333,0,0,-0.13333333,0,1333.3333)" />
      <path
         id="path26"
         d="m 5864.89,6959.58 847.32,-874.05 25.32,-571.5 C 6179.69,5070.89 5156.89,5292.98 4999.96,5913.62 4843.02,5292.98 3820.25,5070.89 3262.41,5514.03 l 48.95,649.35 752.91,823.77 972.32,-6.91 828.3,-20.66"
         style="fill:#87716c;fill-opacity:1;fill-rule:evenodd;stroke:none"
         transform="matrix(0.13333333,0,0,-0.13333333,0,1333.3333)" />
      <path
         id="path27"
         d="M 6737.53,5514.03 C 6179.69,5070.89 5156.89,5292.98 4999.96,5913.62 4843.02,5292.98 3820.25,5070.89 3262.41,5514.03"
         style="fill:none;stroke:#211d1d;stroke-width:183.816;stroke-linecap:round;stroke-linejoin:round;stroke-miterlimit:2.6131;stroke-dasharray:none;stroke-opacity:1"
         transform="matrix(0.13333333,0,0,-0.13333333,0,1333.3333)" />
      <path
         id="path28"
         d="M 5001.21,7635.2 V 5898.23"
         style="fill:none;stroke:#211d1d;stroke-width:183.816;stroke-linecap:butt;stroke-linejoin:miter;stroke-miterlimit:2.6131;stroke-dasharray:none;stroke-opacity:1"
         transform="matrix(0.13333333,0,0,-0.13333333,0,1333.3333)" />
    </g>
  </g>
</svg>
