<?xml version="1.0" encoding="UTF-8" standalone="no"?>
<!-- Created with Inkscape (http://www.inkscape.org/) -->

<svg
   version="1.1"
   id="svg1"
   width="1333.3333"
   height="1333.3333"
   viewBox="0 0 1333.3333 1333.3333"
   sodipodi:docname="avatar-icon16-vectorportal.eps"
   xmlns:inkscape="http://www.inkscape.org/namespaces/inkscape"
   xmlns:sodipodi="http://sodipodi.sourceforge.net/DTD/sodipodi-0.dtd"
   xmlns="http://www.w3.org/2000/svg"
   xmlns:svg="http://www.w3.org/2000/svg">
  <defs
     id="defs1" />
  <sodipodi:namedview
     id="namedview1"
     pagecolor="#ffffff"
     bordercolor="#000000"
     borderopacity="0.25"
     inkscape:showpageshadow="2"
     inkscape:pageopacity="0.0"
     inkscape:pagecheckerboard="0"
     inkscape:deskcolor="#d1d1d1">
    <inkscape:page
       x="0"
       y="0"
       inkscape:label="1"
       id="page1"
       width="1333.3333"
       height="1333.3333"
       margin="0"
       bleed="0" />
  </sodipodi:namedview>
  <g
     id="g1"
     inkscape:groupmode="layer"
     inkscape:label="1">
    <g
       id="group-R5">
      <path
         id="path2"
         d="M 10000,0 H 0 V 10000 H 10000 V 0"
         style="fill:#ffffff;fill-opacity:1;fill-rule:evenodd;stroke:none"
         transform="matrix(0.13333333,0,0,-0.13333333,0,1333.3333)" />
      <path
         id="path3"
         d="m 5000,1000 c 2203.13,0 4000,1796.87 4000,4000 0,2203.13 -1796.87,4000 -4000,4000 -2203.13,0 -4000,-1796.87 -4000,-4000 0,-2203.13 1796.87,-4000 4000,-4000"
         style="fill:#a6c4d2;fill-opacity:1;fill-rule:evenodd;stroke:none"
         transform="matrix(0.13333333,0,0,-0.13333333,0,1333.3333)" />
      <path
         id="path4"
         d="m 5000,1000 c 2203.13,0 4000,1796.87 4000,4000 0,2203.13 -1796.87,4000 -4000,4000 -2203.13,0 -4000,-1796.87 -4000,-4000 0,-2203.13 1796.87,-4000 4000,-4000 z"
         style="fill:none;stroke:#211d1d;stroke-width:183.816;stroke-linecap:round;stroke-linejoin:round;stroke-miterlimit:2.6131;stroke-dasharray:none;stroke-opacity:1"
         transform="matrix(0.13333333,0,0,-0.13333333,0,1333.3333)" />
      <path
         id="path5"
         d="m 8160.86,6081.7 c 291.93,-503.68 -329.03,-1232.04 -1100.42,-712.92 -774.13,520.92 -1037.69,1233.98 -741.33,1551.67 277.83,297.85 1079.51,254.65 1209.77,-378.81 44.44,-216.23 23.84,-577.79 226.12,-707.33 87.49,-56 304.7,3.34 405.86,247.39"
         style="fill:#79625d;fill-opacity:1;fill-rule:evenodd;stroke:none"
         transform="matrix(0.13333333,0,0,-0.13333333,0,1333.3333)" />
      <path
         id="path6"
         d="m 8160.86,6081.7 c 291.93,-503.68 -329.03,-1232.04 -1100.42,-712.92 -774.13,520.92 -1037.69,1233.98 -741.33,1551.67 277.83,297.85 1079.51,254.65 1209.77,-378.81 44.44,-216.23 23.84,-577.79 226.12,-707.33 87.49,-56 304.7,3.34 405.86,247.39 z"
         style="fill:none;stroke:#211d1d;stroke-width:183.816;stroke-linecap:round;stroke-linejoin:round;stroke-miterlimit:2.6131;stroke-dasharray:none;stroke-opacity:1"
         transform="matrix(0.13333333,0,0,-0.13333333,0,1333.3333)" />
      <path
         id="path7"
         d="m 5765.62,6740.2 c -332.54,-224.12 -384.78,-728.29 -116.65,-1126.07 268.11,-397.8 755.01,-538.56 1087.58,-314.42 332.55,224.13 384.78,728.3 116.66,1126.08 -268.12,397.8 -755.02,538.56 -1087.59,314.41"
         style="fill:#f19dd3;fill-opacity:1;fill-rule:evenodd;stroke:none"
         transform="matrix(0.13333333,0,0,-0.13333333,0,1333.3333)" />
      <path
         id="path8"
         d="m 5765.62,6740.2 c -332.54,-224.12 -384.78,-728.29 -116.65,-1126.07 268.11,-397.8 755.01,-538.56 1087.58,-314.42 332.55,224.13 384.78,728.3 116.66,1126.08 -268.12,397.8 -755.02,538.56 -1087.59,314.41 z"
         style="fill:none;stroke:#211d1d;stroke-width:183.816;stroke-linecap:butt;stroke-linejoin:miter;stroke-miterlimit:2.6131;stroke-dasharray:none;stroke-opacity:1"
         transform="matrix(0.13333333,0,0,-0.13333333,0,1333.3333)" />
      <path
         id="path9"
         d="m 1818.01,6081.7 c -291.94,-503.68 329.03,-1232.04 1100.41,-712.92 774.14,520.92 1037.7,1233.98 741.34,1551.67 -277.84,297.85 -1079.52,254.65 -1209.77,-378.81 -44.45,-216.23 -23.84,-577.79 -226.13,-707.33 -87.48,-56 -304.7,3.34 -405.85,247.39"
         style="fill:#79625d;fill-opacity:1;fill-rule:evenodd;stroke:none"
         transform="matrix(0.13333333,0,0,-0.13333333,0,1333.3333)" />
      <path
         id="path10"
         d="m 1818.01,6081.7 c -291.94,-503.68 329.03,-1232.04 1100.41,-712.92 774.14,520.92 1037.7,1233.98 741.34,1551.67 -277.84,297.85 -1079.52,254.65 -1209.77,-378.81 -44.45,-216.23 -23.84,-577.79 -226.13,-707.33 -87.48,-56 -304.7,3.34 -405.85,247.39 z"
         style="fill:none;stroke:#211d1d;stroke-width:183.816;stroke-linecap:round;stroke-linejoin:round;stroke-miterlimit:2.6131;stroke-dasharray:none;stroke-opacity:1"
         transform="matrix(0.13333333,0,0,-0.13333333,0,1333.3333)" />
      <path
         id="path11"
         d="m 4213.24,6740.2 c 332.56,-224.12 384.78,-728.29 116.67,-1126.07 -268.12,-397.8 -755.03,-538.56 -1087.6,-314.42 -332.54,224.13 -384.78,728.3 -116.65,1126.08 268.12,397.8 755.01,538.56 1087.58,314.41"
         style="fill:#f19dd3;fill-opacity:1;fill-rule:evenodd;stroke:none"
         transform="matrix(0.13333333,0,0,-0.13333333,0,1333.3333)" />
      <path
         id="path12"
         d="m 4213.24,6740.2 c 332.56,-224.12 384.78,-728.29 116.67,-1126.07 -268.12,-397.8 -755.03,-538.56 -1087.6,-314.42 -332.54,224.13 -384.78,728.3 -116.65,1126.08 268.12,397.8 755.01,538.56 1087.58,314.41 z"
         style="fill:none;stroke:#211d1d;stroke-width:183.816;stroke-linecap:butt;stroke-linejoin:miter;stroke-miterlimit:2.6131;stroke-dasharray:none;stroke-opacity:1"
         transform="matrix(0.13333333,0,0,-0.13333333,0,1333.3333)" />
      <path
         id="path13"
         d="M 6797.72,1429.24 C 6257.24,1156.72 5646.61,1003.04 5000,1003.04 c -646.62,0 -1257.24,153.68 -1797.73,426.2 -4.74,53.38 -7.32,107.33 -7.32,161.93 0,996.92 808.14,1805.05 1805.05,1805.05 996.9,0 1805.05,-808.13 1805.05,-1805.05 0,-54.6 -2.59,-108.55 -7.33,-161.93"
         style="fill:#f19dd3;fill-opacity:1;fill-rule:evenodd;stroke:none"
         transform="matrix(0.13333333,0,0,-0.13333333,0,1333.3333)" />
      <path
         id="path14"
         d="M 6797.72,1429.24 C 6257.24,1156.72 5646.61,1003.04 5000,1003.04 c -646.62,0 -1257.24,153.68 -1797.73,426.2 -4.74,53.38 -7.32,107.33 -7.32,161.93 0,996.92 808.14,1805.05 1805.05,1805.05 996.9,0 1805.05,-808.13 1805.05,-1805.05 0,-54.6 -2.59,-108.55 -7.33,-161.93 z"
         style="fill:none;stroke:#211d1d;stroke-width:183.816;stroke-linecap:round;stroke-linejoin:round;stroke-miterlimit:2.6131;stroke-dasharray:none;stroke-opacity:1"
         transform="matrix(0.13333333,0,0,-0.13333333,0,1333.3333)" />
      <path
         id="path15"
         d="m 5000,2261.33 c 399.1,0 724.61,325.51 724.61,724.61 0,399.11 -325.51,724.62 -724.61,724.62 -399.11,0 -724.62,-325.51 -724.62,-724.62 0,-399.1 325.51,-724.61 724.62,-724.61"
         style="fill:#f9d9ce;fill-opacity:1;fill-rule:evenodd;stroke:none"
         transform="matrix(0.13333333,0,0,-0.13333333,0,1333.3333)" />
      <path
         id="path16"
         d="m 5000,2261.33 c 399.1,0 724.61,325.51 724.61,724.61 0,399.11 -325.51,724.62 -724.61,724.62 -399.11,0 -724.62,-325.51 -724.62,-724.62 0,-399.1 325.51,-724.61 724.62,-724.61 z"
         style="fill:none;stroke:#211d1d;stroke-width:183.816;stroke-linecap:butt;stroke-linejoin:miter;stroke-miterlimit:2.6131;stroke-dasharray:none;stroke-opacity:1"
         transform="matrix(0.13333333,0,0,-0.13333333,0,1333.3333)" />
      <path
         id="path17"
         d="m 6747.5,3833.29 c 249.6,0 453.18,203.59 453.18,453.19 0,249.59 -203.58,453.19 -453.18,453.19 -249.61,0 -453.2,-203.6 -453.2,-453.19 0,-249.6 203.59,-453.19 453.2,-453.19"
         style="fill:#f9d9ce;fill-opacity:1;fill-rule:evenodd;stroke:none"
         transform="matrix(0.13333333,0,0,-0.13333333,0,1333.3333)" />
      <path
         id="path18"
         d="m 6747.5,3833.29 c 249.6,0 453.18,203.59 453.18,453.19 0,249.59 -203.58,453.19 -453.18,453.19 -249.61,0 -453.2,-203.6 -453.2,-453.19 0,-249.6 203.59,-453.19 453.2,-453.19 z"
         style="fill:none;stroke:#211d1d;stroke-width:183.816;stroke-linecap:round;stroke-linejoin:round;stroke-miterlimit:2.6131;stroke-dasharray:none;stroke-opacity:1"
         transform="matrix(0.13333333,0,0,-0.13333333,0,1333.3333)" />
      <path
         id="path19"
         d="m 3252.49,3833.29 c 249.61,0 453.2,203.59 453.2,453.19 0,249.59 -203.59,453.19 -453.2,453.19 -249.59,0 -453.18,-203.6 -453.18,-453.19 0,-249.6 203.59,-453.19 453.18,-453.19"
         style="fill:#f9d9ce;fill-opacity:1;fill-rule:evenodd;stroke:none"
         transform="matrix(0.13333333,0,0,-0.13333333,0,1333.3333)" />
      <path
         id="path20"
         d="m 3252.49,3833.29 c 249.61,0 453.2,203.59 453.2,453.19 0,249.59 -203.59,453.19 -453.2,453.19 -249.59,0 -453.18,-203.6 -453.18,-453.19 0,-249.6 203.59,-453.19 453.18,-453.19 z"
         style="fill:none;stroke:#211d1d;stroke-width:183.816;stroke-linecap:round;stroke-linejoin:round;stroke-miterlimit:2.6131;stroke-dasharray:none;stroke-opacity:1"
         transform="matrix(0.13333333,0,0,-0.13333333,0,1333.3333)" />
      <path
         id="path21"
         d="m 5000,2968.75 c 987.06,0 1792.12,805.07 1792.12,1792.13 0,987.05 -805.06,1792.11 -1792.12,1792.11 -987.06,0 -1792.12,-805.06 -1792.12,-1792.11 0,-987.06 805.06,-1792.13 1792.12,-1792.13"
         style="fill:#f9d9ce;fill-opacity:1;fill-rule:evenodd;stroke:none"
         transform="matrix(0.13333333,0,0,-0.13333333,0,1333.3333)" />
      <path
         id="path22"
         d="m 5000,2968.75 c 987.06,0 1792.12,805.07 1792.12,1792.13 0,987.05 -805.06,1792.11 -1792.12,1792.11 -987.06,0 -1792.12,-805.06 -1792.12,-1792.11 0,-987.06 805.06,-1792.13 1792.12,-1792.13 z"
         style="fill:none;stroke:#211d1d;stroke-width:183.816;stroke-linecap:butt;stroke-linejoin:miter;stroke-miterlimit:2.6131;stroke-dasharray:none;stroke-opacity:1"
         transform="matrix(0.13333333,0,0,-0.13333333,0,1333.3333)" />
      <path
         id="path23"
         d="m 6413.78,3882.97 c 1077.85,732.64 426.04,2933.35 -1419.1,2923.87 -1799.62,-9.22 -2522.03,-2104.95 -1448.21,-2889.35 -147.69,731.49 -253.9,1465.52 289.47,1819.66 0,-276.48 311.91,-348.83 510.07,-399.79 -175.67,153.78 -179.94,503.99 -82.72,537.65 369.54,0 376.75,-326.32 344.63,-634.14 192.11,36.5 450.54,439.56 289.52,730.63 290.59,9.1 468.71,-510 468.71,-799.57 289.66,105.67 272.37,667.81 165.43,785.79 393.97,40.25 486.58,-507.03 358.41,-661.7 240.92,37.9 310.17,106.73 344.63,358.42 201.95,-212.43 527.05,-888.3 179.16,-1771.47"
         style="fill:#79625d;fill-opacity:1;fill-rule:evenodd;stroke:none"
         transform="matrix(0.13333333,0,0,-0.13333333,0,1333.3333)" />
      <path
         id="path24"
         d="m 6413.78,3882.97 c 1077.85,732.64 426.04,2933.35 -1419.1,2923.87 -1799.62,-9.22 -2522.03,-2104.95 -1448.21,-2889.35 -147.69,731.49 -253.9,1465.52 289.47,1819.66 0,-276.48 311.91,-348.83 510.07,-399.79 -175.67,153.78 -179.94,503.99 -82.72,537.65 369.54,0 376.75,-326.32 344.63,-634.14 192.11,36.5 450.54,439.56 289.52,730.63 290.59,9.1 468.71,-510 468.71,-799.57 289.66,105.67 272.37,667.81 165.43,785.79 393.97,40.25 486.58,-507.03 358.41,-661.7 240.92,37.9 310.17,106.73 344.63,358.42 201.95,-212.43 527.05,-888.3 179.16,-1771.47 z"
         style="fill:none;stroke:#211d1d;stroke-width:183.816;stroke-linecap:round;stroke-linejoin:round;stroke-miterlimit:2.6131;stroke-dasharray:none;stroke-opacity:1"
         transform="matrix(0.13333333,0,0,-0.13333333,0,1333.3333)" />
      <path
         id="path25"
         d="m 4233.18,4053.84 c 128.12,0 232.63,104.52 232.63,232.64 0,128.11 -104.51,232.63 -232.63,232.63 -128.13,0 -232.65,-104.52 -232.65,-232.63 0,-128.12 104.52,-232.64 232.65,-232.64"
         style="fill:#211d1d;fill-opacity:1;fill-rule:evenodd;stroke:none"
         transform="matrix(0.13333333,0,0,-0.13333333,0,1333.3333)" />
      <path
         id="path26"
         d="m 5766.8,4053.84 c 128.11,0 232.63,104.52 232.63,232.64 0,128.11 -104.52,232.63 -232.63,232.63 -128.13,0 -232.65,-104.52 -232.65,-232.63 0,-128.12 104.52,-232.64 232.65,-232.64"
         style="fill:#211d1d;fill-opacity:1;fill-rule:evenodd;stroke:none"
         transform="matrix(0.13333333,0,0,-0.13333333,0,1333.3333)" />
    </g>
  </g>
</svg>
