<?xml version="1.0" encoding="UTF-8" standalone="no"?>
<!-- Created with Inkscape (http://www.inkscape.org/) -->

<svg
   version="1.1"
   id="svg1"
   width="1333.3333"
   height="1333.3333"
   viewBox="0 0 1333.3333 1333.3333"
   sodipodi:docname="avatar-icon4-vectorportal.eps"
   xmlns:inkscape="http://www.inkscape.org/namespaces/inkscape"
   xmlns:sodipodi="http://sodipodi.sourceforge.net/DTD/sodipodi-0.dtd"
   xmlns="http://www.w3.org/2000/svg"
   xmlns:svg="http://www.w3.org/2000/svg">
  <defs
     id="defs1" />
  <sodipodi:namedview
     id="namedview1"
     pagecolor="#ffffff"
     bordercolor="#000000"
     borderopacity="0.25"
     inkscape:showpageshadow="2"
     inkscape:pageopacity="0.0"
     inkscape:pagecheckerboard="0"
     inkscape:deskcolor="#d1d1d1">
    <inkscape:page
       x="0"
       y="0"
       inkscape:label="1"
       id="page1"
       width="1333.3333"
       height="1333.3333"
       margin="0"
       bleed="0" />
  </sodipodi:namedview>
  <g
     id="g1"
     inkscape:groupmode="layer"
     inkscape:label="1">
    <g
       id="group-R5">
      <path
         id="path2"
         d="M 10000,0 H 0 V 10000 H 10000 V 0"
         style="fill:#ffffff;fill-opacity:1;fill-rule:evenodd;stroke:none"
         transform="matrix(0.13333333,0,0,-0.13333333,0,1333.3333)" />
      <path
         id="path3"
         d="m 5000,1000 c 2203.13,0 4000,1796.87 4000,4000 0,2203.13 -1796.87,4000 -4000,4000 -2203.13,0 -4000,-1796.87 -4000,-4000 0,-2203.13 1796.87,-4000 4000,-4000"
         style="fill:#c4818c;fill-opacity:1;fill-rule:evenodd;stroke:none"
         transform="matrix(0.13333333,0,0,-0.13333333,0,1333.3333)" />
      <path
         id="path4"
         d="m 5000,1000 c 2203.13,0 4000,1796.87 4000,4000 0,2203.13 -1796.87,4000 -4000,4000 -2203.13,0 -4000,-1796.87 -4000,-4000 0,-2203.13 1796.87,-4000 4000,-4000 z"
         style="fill:none;stroke:#211d1d;stroke-width:183.816;stroke-linecap:round;stroke-linejoin:round;stroke-miterlimit:2.6131;stroke-dasharray:none;stroke-opacity:1"
         transform="matrix(0.13333333,0,0,-0.13333333,0,1333.3333)" />
      <path
         id="path5"
         d="m 5000,3675.92 c 1138.78,0 2067.56,708.07 2067.56,1576.26 0,868.18 -928.78,1576.26 -2067.56,1576.26 -1138.78,0 -2067.57,-708.08 -2067.57,-1576.26 0,-868.19 928.79,-1576.26 2067.57,-1576.26"
         style="fill:#211d1d;fill-opacity:1;fill-rule:evenodd;stroke:none"
         transform="matrix(0.13333333,0,0,-0.13333333,0,1333.3333)" />
      <path
         id="path6"
         d="m 5000,3675.92 c 1138.78,0 2067.56,708.07 2067.56,1576.26 0,868.18 -928.78,1576.26 -2067.56,1576.26 -1138.78,0 -2067.57,-708.08 -2067.57,-1576.26 0,-868.19 928.79,-1576.26 2067.57,-1576.26 z"
         style="fill:none;stroke:#211d1d;stroke-width:183.816;stroke-linecap:round;stroke-linejoin:round;stroke-miterlimit:2.6131;stroke-dasharray:none;stroke-opacity:1"
         transform="matrix(0.13333333,0,0,-0.13333333,0,1333.3333)" />
      <path
         id="path7"
         d="m 6797.72,1429.28 c -540.48,-272.53 -1151.1,-426.2 -1797.72,-426.2 -646.62,0 -1257.24,153.67 -1797.73,426.2 -4.74,53.38 -7.31,107.33 -7.31,161.93 0,996.91 808.13,1805.05 1805.04,1805.05 996.9,0 1805.04,-808.14 1805.04,-1805.05 0,-54.6 -2.57,-108.55 -7.32,-161.93"
         style="fill:#51a68d;fill-opacity:1;fill-rule:evenodd;stroke:none"
         transform="matrix(0.13333333,0,0,-0.13333333,0,1333.3333)" />
      <path
         id="path8"
         d="m 6797.72,1429.28 c -540.48,-272.53 -1151.1,-426.2 -1797.72,-426.2 -646.62,0 -1257.24,153.67 -1797.73,426.2 -4.74,53.38 -7.31,107.33 -7.31,161.93 0,996.91 808.13,1805.05 1805.04,1805.05 996.9,0 1805.04,-808.14 1805.04,-1805.05 0,-54.6 -2.57,-108.55 -7.32,-161.93 z"
         style="fill:none;stroke:#211d1d;stroke-width:183.816;stroke-linecap:round;stroke-linejoin:round;stroke-miterlimit:2.6131;stroke-dasharray:none;stroke-opacity:1"
         transform="matrix(0.13333333,0,0,-0.13333333,0,1333.3333)" />
      <path
         id="path9"
         d="m 5000,2261.33 c 399.1,0 724.61,325.51 724.61,724.62 0,399.11 -325.51,724.62 -724.61,724.62 -399.11,0 -724.62,-325.51 -724.62,-724.62 0,-399.11 325.51,-724.62 724.62,-724.62"
         style="fill:#f9d9ce;fill-opacity:1;fill-rule:evenodd;stroke:none"
         transform="matrix(0.13333333,0,0,-0.13333333,0,1333.3333)" />
      <path
         id="path10"
         d="m 5000,2261.33 c 399.1,0 724.61,325.51 724.61,724.62 0,399.11 -325.51,724.62 -724.61,724.62 -399.11,0 -724.62,-325.51 -724.62,-724.62 0,-399.11 325.51,-724.62 724.62,-724.62 z"
         style="fill:none;stroke:#211d1d;stroke-width:183.816;stroke-linecap:butt;stroke-linejoin:miter;stroke-miterlimit:2.6131;stroke-dasharray:none;stroke-opacity:1"
         transform="matrix(0.13333333,0,0,-0.13333333,0,1333.3333)" />
      <path
         id="path11"
         d="m 6747.5,3833.3 c 249.59,0 453.18,203.58 453.18,453.18 0,249.6 -203.59,453.19 -453.18,453.19 -249.6,0 -453.2,-203.59 -453.2,-453.19 0,-249.6 203.6,-453.18 453.2,-453.18"
         style="fill:#f9d9ce;fill-opacity:1;fill-rule:evenodd;stroke:none"
         transform="matrix(0.13333333,0,0,-0.13333333,0,1333.3333)" />
      <path
         id="path12"
         d="m 6747.5,3833.3 c 249.59,0 453.18,203.58 453.18,453.18 0,249.6 -203.59,453.19 -453.18,453.19 -249.6,0 -453.2,-203.59 -453.2,-453.19 0,-249.6 203.6,-453.18 453.2,-453.18 z"
         style="fill:none;stroke:#211d1d;stroke-width:183.816;stroke-linecap:round;stroke-linejoin:round;stroke-miterlimit:2.6131;stroke-dasharray:none;stroke-opacity:1"
         transform="matrix(0.13333333,0,0,-0.13333333,0,1333.3333)" />
      <path
         id="path13"
         d="m 3252.5,3833.3 c 249.59,0 453.19,203.58 453.19,453.18 0,249.6 -203.6,453.19 -453.19,453.19 -249.59,0 -453.19,-203.59 -453.19,-453.19 0,-249.6 203.6,-453.18 453.19,-453.18"
         style="fill:#f9d9ce;fill-opacity:1;fill-rule:evenodd;stroke:none"
         transform="matrix(0.13333333,0,0,-0.13333333,0,1333.3333)" />
      <path
         id="path14"
         d="m 3252.5,3833.3 c 249.59,0 453.19,203.58 453.19,453.18 0,249.6 -203.6,453.19 -453.19,453.19 -249.59,0 -453.19,-203.59 -453.19,-453.19 0,-249.6 203.6,-453.18 453.19,-453.18 z"
         style="fill:none;stroke:#211d1d;stroke-width:183.816;stroke-linecap:round;stroke-linejoin:round;stroke-miterlimit:2.6131;stroke-dasharray:none;stroke-opacity:1"
         transform="matrix(0.13333333,0,0,-0.13333333,0,1333.3333)" />
      <path
         id="path15"
         d="m 5000,2968.75 c 987.06,0 1792.12,805.07 1792.12,1792.13 0,987.06 -805.06,1792.12 -1792.12,1792.12 -987.06,0 -1792.12,-805.06 -1792.12,-1792.12 0,-987.06 805.06,-1792.13 1792.12,-1792.13"
         style="fill:#f9d9ce;fill-opacity:1;fill-rule:evenodd;stroke:none"
         transform="matrix(0.13333333,0,0,-0.13333333,0,1333.3333)" />
      <path
         id="path16"
         d="m 5000,2968.75 c 987.06,0 1792.12,805.07 1792.12,1792.13 0,987.06 -805.06,1792.12 -1792.12,1792.12 -987.06,0 -1792.12,-805.06 -1792.12,-1792.12 0,-987.06 805.06,-1792.13 1792.12,-1792.13 z"
         style="fill:none;stroke:#211d1d;stroke-width:183.816;stroke-linecap:butt;stroke-linejoin:miter;stroke-miterlimit:2.6131;stroke-dasharray:none;stroke-opacity:1"
         transform="matrix(0.13333333,0,0,-0.13333333,0,1333.3333)" />
      <path
         id="path17"
         d="m 4580.26,4079.69 c 271.64,234.17 543.32,225.32 814.94,0"
         style="fill:none;stroke:#211d1d;stroke-width:183.816;stroke-linecap:round;stroke-linejoin:round;stroke-miterlimit:2.6131;stroke-dasharray:none;stroke-opacity:1"
         transform="matrix(0.13333333,0,0,-0.13333333,0,1333.3333)" />
      <path
         id="path18"
         d="m 3888.54,4316.16 -749.6,456.88"
         style="fill:none;stroke:#211d1d;stroke-width:183.816;stroke-linecap:round;stroke-linejoin:round;stroke-miterlimit:2.6131;stroke-dasharray:none;stroke-opacity:1"
         transform="matrix(0.13333333,0,0,-0.13333333,0,1333.3333)" />
      <path
         id="path19"
         d="m 6111.45,4316.16 749.6,456.88"
         style="fill:none;stroke:#211d1d;stroke-width:183.816;stroke-linecap:round;stroke-linejoin:round;stroke-miterlimit:2.6131;stroke-dasharray:none;stroke-opacity:1"
         transform="matrix(0.13333333,0,0,-0.13333333,0,1333.3333)" />
      <path
         id="path20"
         d="m 4812.14,4205.77 c 26.5,131.64 8.21,232.93 -56.77,302.65 -158.75,170.37 -977.36,227.16 -1078.8,-153.37 -45.36,-170.27 4.27,-295.06 109.62,-424.98 182.36,-224.77 408.22,-266.24 702.94,-105.73 155.24,84.5 288.96,212.23 323.01,381.43"
         style="fill:#a6c4d2;fill-opacity:1;fill-rule:evenodd;stroke:none"
         transform="matrix(0.13333333,0,0,-0.13333333,0,1333.3333)" />
      <path
         id="path21"
         d="m 4812.14,4205.77 c 26.5,131.64 8.21,232.93 -56.77,302.65 -158.75,170.37 -977.36,227.16 -1078.8,-153.37 -45.36,-170.27 4.27,-295.06 109.62,-424.98 182.36,-224.77 408.22,-266.24 702.94,-105.73 155.24,84.5 288.96,212.23 323.01,381.43 z"
         style="fill:none;stroke:#211d1d;stroke-width:183.816;stroke-linecap:round;stroke-linejoin:round;stroke-miterlimit:2.6131;stroke-dasharray:none;stroke-opacity:1"
         transform="matrix(0.13333333,0,0,-0.13333333,0,1333.3333)" />
      <path
         id="path22"
         d="m 5187.88,4205.77 c -26.5,131.64 -8.21,232.93 56.77,302.65 158.75,170.37 977.36,227.16 1078.8,-153.37 45.36,-170.27 -4.27,-295.06 -109.62,-424.98 -182.35,-224.77 -408.22,-266.24 -702.94,-105.73 -155.24,84.5 -288.96,212.23 -323.01,381.43"
         style="fill:#a6c4d2;fill-opacity:1;fill-rule:evenodd;stroke:none"
         transform="matrix(0.13333333,0,0,-0.13333333,0,1333.3333)" />
      <path
         id="path23"
         d="m 5187.88,4205.77 c -26.5,131.64 -8.21,232.93 56.77,302.65 158.75,170.37 977.36,227.16 1078.8,-153.37 45.36,-170.27 -4.27,-295.06 -109.62,-424.98 -182.35,-224.77 -408.22,-266.24 -702.94,-105.73 -155.24,84.5 -288.96,212.23 -323.01,381.43 z"
         style="fill:none;stroke:#211d1d;stroke-width:183.816;stroke-linecap:round;stroke-linejoin:round;stroke-miterlimit:2.6131;stroke-dasharray:none;stroke-opacity:1"
         transform="matrix(0.13333333,0,0,-0.13333333,0,1333.3333)" />
      <path
         id="path24"
         d="m 4334.25,4639.9 h 1354.5"
         style="fill:none;stroke:#211d1d;stroke-width:183.816;stroke-linecap:round;stroke-linejoin:round;stroke-miterlimit:2.6131;stroke-dasharray:none;stroke-opacity:1"
         transform="matrix(0.13333333,0,0,-0.13333333,0,1333.3333)" />
      <path
         id="path25"
         d="m 6212.87,7687.57 c 345.8,-143.99 656.18,-491.52 496.28,-1087.91 -382.93,-1428.16 -3450.4,-1072.71 -3402.72,-132.4 19.46,384.03 438,873.14 1539.5,653.92 607.7,-120.96 1456.55,-369.48 1366.94,566.39"
         style="fill:#211d1d;fill-opacity:1;fill-rule:evenodd;stroke:none"
         transform="matrix(0.13333333,0,0,-0.13333333,0,1333.3333)" />
      <path
         id="path26"
         d="m 6212.87,7687.57 c 345.8,-143.99 656.18,-491.52 496.28,-1087.91 -382.93,-1428.16 -3450.4,-1072.71 -3402.72,-132.4 19.46,384.03 438,873.14 1539.5,653.92 607.7,-120.96 1456.55,-369.48 1366.94,566.39 z"
         style="fill:none;stroke:#211d1d;stroke-width:183.816;stroke-linecap:round;stroke-linejoin:round;stroke-miterlimit:2.6131;stroke-dasharray:none;stroke-opacity:1"
         transform="matrix(0.13333333,0,0,-0.13333333,0,1333.3333)" />
      <path
         id="path27"
         d="M 3963.2,6119.69 C 4419.52,5975.6 5855.23,5709.93 6296.33,6588.4"
         style="fill:none;stroke:#505256;stroke-width:183.816;stroke-linecap:round;stroke-linejoin:round;stroke-miterlimit:2.6131;stroke-dasharray:none;stroke-opacity:1"
         transform="matrix(0.13333333,0,0,-0.13333333,0,1333.3333)" />
      <path
         id="path28"
         d="m 4211.34,6526.4 c 209.49,-83.52 1014.78,-224.17 1371.66,48.25"
         style="fill:none;stroke:#505256;stroke-width:183.816;stroke-linecap:round;stroke-linejoin:round;stroke-miterlimit:2.6131;stroke-dasharray:none;stroke-opacity:1"
         transform="matrix(0.13333333,0,0,-0.13333333,0,1333.3333)" />
    </g>
  </g>
</svg>
