<?xml version="1.0" encoding="UTF-8" standalone="no"?>
<!-- Created with Inkscape (http://www.inkscape.org/) -->

<svg
   version="1.1"
   id="svg1"
   width="1333.3333"
   height="1333.3333"
   viewBox="0 0 1333.3333 1333.3333"
   sodipodi:docname="avatar-icon1-vectorportal.eps"
   xmlns:inkscape="http://www.inkscape.org/namespaces/inkscape"
   xmlns:sodipodi="http://sodipodi.sourceforge.net/DTD/sodipodi-0.dtd"
   xmlns="http://www.w3.org/2000/svg"
   xmlns:svg="http://www.w3.org/2000/svg">
  <defs
     id="defs1" />
  <sodipodi:namedview
     id="namedview1"
     pagecolor="#ffffff"
     bordercolor="#000000"
     borderopacity="0.25"
     inkscape:showpageshadow="2"
     inkscape:pageopacity="0.0"
     inkscape:pagecheckerboard="0"
     inkscape:deskcolor="#d1d1d1">
    <inkscape:page
       x="0"
       y="0"
       inkscape:label="1"
       id="page1"
       width="1333.3333"
       height="1333.3333"
       margin="0"
       bleed="0" />
  </sodipodi:namedview>
  <g
     id="g1"
     inkscape:groupmode="layer"
     inkscape:label="1">
    <g
       id="group-R5">
      <path
         id="path2"
         d="M 10000,0 H 0 V 10000 H 10000 V 0"
         style="fill:#ffffff;fill-opacity:1;fill-rule:evenodd;stroke:none"
         transform="matrix(0.13333333,0,0,-0.13333333,0,1333.3333)" />
      <path
         id="path3"
         d="m 5000,1000 c 2203.13,0 4000,1796.87 4000,4000 0,2203.13 -1796.87,4000 -4000,4000 -2203.14,0 -4000,-1796.87 -4000,-4000 0,-2203.13 1796.86,-4000 4000,-4000"
         style="fill:#f797b9;fill-opacity:1;fill-rule:evenodd;stroke:none"
         transform="matrix(0.13333333,0,0,-0.13333333,0,1333.3333)" />
      <path
         id="path4"
         d="m 5000,1000 c 2203.13,0 4000,1796.87 4000,4000 0,2203.13 -1796.87,4000 -4000,4000 -2203.14,0 -4000,-1796.87 -4000,-4000 0,-2203.13 1796.86,-4000 4000,-4000 z"
         style="fill:none;stroke:#211d1d;stroke-width:183.816;stroke-linecap:round;stroke-linejoin:round;stroke-miterlimit:2.6131;stroke-dasharray:none;stroke-opacity:1"
         transform="matrix(0.13333333,0,0,-0.13333333,0,1333.3333)" />
      <path
         id="path5"
         d="M 5023.18,3480.14 C 4272.64,3056.86 3333.23,2595.17 2395.36,2817.34 l 514.72,545.86 c -1855.14,5667.18 6043.7,5693.91 4179.78,0 l 514.73,-545.86 C 6666.7,2595.17 5773.7,3056.86 5023.18,3480.14"
         style="fill:#faf669;fill-opacity:1;fill-rule:evenodd;stroke:#211d1d;stroke-width:183.816;stroke-linecap:round;stroke-linejoin:round;stroke-miterlimit:2.6131;stroke-dasharray:none;stroke-opacity:1"
         transform="matrix(0.13333333,0,0,-0.13333333,0,1333.3333)" />
      <path
         id="path6"
         d="m 6797.69,1429.28 c -540.48,-272.53 -1151.1,-426.2 -1797.72,-426.2 -646.62,0 -1257.24,153.67 -1797.73,426.2 -4.74,53.38 -7.31,107.33 -7.31,161.93 0,996.91 808.13,1805.05 1805.04,1805.05 996.91,0 1805.05,-808.14 1805.05,-1805.05 0,-54.6 -2.59,-108.55 -7.33,-161.93"
         style="fill:#52aee5;fill-opacity:1;fill-rule:evenodd;stroke:none"
         transform="matrix(0.13333333,0,0,-0.13333333,0,1333.3333)" />
      <path
         id="path7"
         d="m 6797.69,1429.28 c -540.48,-272.53 -1151.1,-426.2 -1797.72,-426.2 -646.62,0 -1257.24,153.67 -1797.73,426.2 -4.74,53.38 -7.31,107.33 -7.31,161.93 0,996.91 808.13,1805.05 1805.04,1805.05 996.91,0 1805.05,-808.14 1805.05,-1805.05 0,-54.6 -2.59,-108.55 -7.33,-161.93 z"
         style="fill:none;stroke:#211d1d;stroke-width:183.816;stroke-linecap:round;stroke-linejoin:round;stroke-miterlimit:2.6131;stroke-dasharray:none;stroke-opacity:1"
         transform="matrix(0.13333333,0,0,-0.13333333,0,1333.3333)" />
      <path
         id="path8"
         d="m 5000,2261.33 c 399.1,0 724.61,325.51 724.61,724.62 0,399.11 -325.51,724.62 -724.61,724.62 -399.11,0 -724.62,-325.51 -724.62,-724.62 0,-399.11 325.51,-724.62 724.62,-724.62"
         style="fill:#f9d9ce;fill-opacity:1;fill-rule:evenodd;stroke:none"
         transform="matrix(0.13333333,0,0,-0.13333333,0,1333.3333)" />
      <path
         id="path9"
         d="m 5000,2261.33 c 399.1,0 724.61,325.51 724.61,724.62 0,399.11 -325.51,724.62 -724.61,724.62 -399.11,0 -724.62,-325.51 -724.62,-724.62 0,-399.11 325.51,-724.62 724.62,-724.62 z"
         style="fill:none;stroke:#211d1d;stroke-width:183.816;stroke-linecap:butt;stroke-linejoin:miter;stroke-miterlimit:2.6131;stroke-dasharray:none;stroke-opacity:1"
         transform="matrix(0.13333333,0,0,-0.13333333,0,1333.3333)" />
      <path
         id="path10"
         d="m 6747.5,3833.3 c 249.59,0 453.18,203.58 453.18,453.18 0,249.6 -203.59,453.19 -453.18,453.19 -249.61,0 -453.2,-203.59 -453.2,-453.19 0,-249.6 203.59,-453.18 453.2,-453.18"
         style="fill:#f9d9ce;fill-opacity:1;fill-rule:evenodd;stroke:none"
         transform="matrix(0.13333333,0,0,-0.13333333,0,1333.3333)" />
      <path
         id="path11"
         d="m 6747.5,3833.3 c 249.59,0 453.18,203.58 453.18,453.18 0,249.6 -203.59,453.19 -453.18,453.19 -249.61,0 -453.2,-203.59 -453.2,-453.19 0,-249.6 203.59,-453.18 453.2,-453.18 z"
         style="fill:none;stroke:#211d1d;stroke-width:183.816;stroke-linecap:round;stroke-linejoin:round;stroke-miterlimit:2.6131;stroke-dasharray:none;stroke-opacity:1"
         transform="matrix(0.13333333,0,0,-0.13333333,0,1333.3333)" />
      <path
         id="path12"
         d="m 3252.49,3833.3 c 249.61,0 453.2,203.58 453.2,453.18 0,249.6 -203.59,453.19 -453.2,453.19 -249.59,0 -453.18,-203.59 -453.18,-453.19 0,-249.6 203.59,-453.18 453.18,-453.18"
         style="fill:#f9d9ce;fill-opacity:1;fill-rule:evenodd;stroke:none"
         transform="matrix(0.13333333,0,0,-0.13333333,0,1333.3333)" />
      <path
         id="path13"
         d="m 3252.49,3833.3 c 249.61,0 453.2,203.58 453.2,453.18 0,249.6 -203.59,453.19 -453.2,453.19 -249.59,0 -453.18,-203.59 -453.18,-453.19 0,-249.6 203.59,-453.18 453.18,-453.18 z"
         style="fill:none;stroke:#211d1d;stroke-width:183.816;stroke-linecap:round;stroke-linejoin:round;stroke-miterlimit:2.6131;stroke-dasharray:none;stroke-opacity:1"
         transform="matrix(0.13333333,0,0,-0.13333333,0,1333.3333)" />
      <path
         id="path14"
         d="m 5000,2968.75 c 987.05,0 1792.11,805.07 1792.11,1792.13 0,987.06 -805.06,1792.12 -1792.11,1792.12 -987.06,0 -1792.12,-805.06 -1792.12,-1792.12 0,-987.06 805.06,-1792.13 1792.12,-1792.13"
         style="fill:#f9d9ce;fill-opacity:1;fill-rule:evenodd;stroke:none"
         transform="matrix(0.13333333,0,0,-0.13333333,0,1333.3333)" />
      <path
         id="path15"
         d="m 5000,2968.75 c 987.05,0 1792.11,805.07 1792.11,1792.13 0,987.06 -805.06,1792.12 -1792.11,1792.12 -987.06,0 -1792.12,-805.06 -1792.12,-1792.12 0,-987.06 805.06,-1792.13 1792.12,-1792.13 z"
         style="fill:none;stroke:#211d1d;stroke-width:183.816;stroke-linecap:butt;stroke-linejoin:miter;stroke-miterlimit:2.6131;stroke-dasharray:none;stroke-opacity:1"
         transform="matrix(0.13333333,0,0,-0.13333333,0,1333.3333)" />
      <path
         id="path16"
         d="m 3899.3,6724.32 -616.16,-657.96 233.03,-274.92 c 502.96,-446.86 1246.16,-630.49 2148.94,-633.02 -281.46,144.22 -465.49,421.96 -491.69,637.03 657.97,-338.17 1091.19,-413.2 1616.98,-500.34 l 285.6,-35.43 -894.5,1464.64 -1099.44,399.8 -1182.76,-399.8"
         style="fill:#faf669;fill-opacity:1;fill-rule:evenodd;stroke:none"
         transform="matrix(0.13333333,0,0,-0.13333333,0,1333.3333)" />
      <path
         id="path17"
         d="m 4233.18,4053.85 c 128.12,0 232.63,104.51 232.63,232.63 0,128.15 -104.51,232.64 -232.63,232.64 -128.15,0 -232.65,-104.49 -232.65,-232.64 0,-128.12 104.5,-232.63 232.65,-232.63"
         style="fill:#211d1d;fill-opacity:1;fill-rule:evenodd;stroke:none"
         transform="matrix(0.13333333,0,0,-0.13333333,0,1333.3333)" />
      <path
         id="path18"
         d="m 5766.79,4053.85 c 128.12,0 232.64,104.51 232.64,232.63 0,128.15 -104.52,232.64 -232.64,232.64 -128.14,0 -232.64,-104.49 -232.64,-232.64 0,-128.12 104.5,-232.63 232.64,-232.63"
         style="fill:#211d1d;fill-opacity:1;fill-rule:evenodd;stroke:none"
         transform="matrix(0.13333333,0,0,-0.13333333,0,1333.3333)" />
      <path
         id="path19"
         d="m 3455.86,5843.13 c 470.25,-504.57 1275.47,-728.71 2209.25,-684.71 -281.46,144.22 -465.49,421.96 -491.69,637.03 657.97,-338.17 1125.65,-421.82 1651.45,-508.96"
         style="fill:none;stroke:#211d1d;stroke-width:183.816;stroke-linecap:round;stroke-linejoin:round;stroke-miterlimit:2.6131;stroke-dasharray:none;stroke-opacity:1"
         transform="matrix(0.13333333,0,0,-0.13333333,0,1333.3333)" />
      <path
         id="path20"
         d="m 3307.8,3459.87 c 108.25,0 196.51,88.27 196.51,196.51 0,108.25 -88.26,196.53 -196.51,196.53 -108.24,0 -196.52,-88.28 -196.52,-196.53 0,-108.24 88.28,-196.51 196.52,-196.51"
         style="fill:#ffffff;fill-opacity:1;fill-rule:evenodd;stroke:none"
         transform="matrix(0.13333333,0,0,-0.13333333,0,1333.3333)" />
      <path
         id="path21"
         d="m 3307.8,3459.87 c 108.25,0 196.51,88.27 196.51,196.51 0,108.25 -88.26,196.53 -196.51,196.53 -108.24,0 -196.52,-88.28 -196.52,-196.53 0,-108.24 88.28,-196.51 196.52,-196.51 z"
         style="fill:none;stroke:#211d1d;stroke-width:183.816;stroke-linecap:round;stroke-linejoin:round;stroke-miterlimit:2.6131;stroke-dasharray:none;stroke-opacity:1"
         transform="matrix(0.13333333,0,0,-0.13333333,0,1333.3333)" />
      <path
         id="path22"
         d="m 6666.32,3459.87 c 108.24,0 196.51,88.27 196.51,196.51 0,108.25 -88.27,196.53 -196.51,196.53 -108.25,0 -196.54,-88.28 -196.54,-196.53 0,-108.24 88.29,-196.51 196.54,-196.51"
         style="fill:#ffffff;fill-opacity:1;fill-rule:evenodd;stroke:none"
         transform="matrix(0.13333333,0,0,-0.13333333,0,1333.3333)" />
      <path
         id="path23"
         d="m 6666.32,3459.87 c 108.24,0 196.51,88.27 196.51,196.51 0,108.25 -88.27,196.53 -196.51,196.53 -108.25,0 -196.54,-88.28 -196.54,-196.53 0,-108.24 88.29,-196.51 196.54,-196.51 z"
         style="fill:none;stroke:#211d1d;stroke-width:183.816;stroke-linecap:round;stroke-linejoin:round;stroke-miterlimit:2.6131;stroke-dasharray:none;stroke-opacity:1"
         transform="matrix(0.13333333,0,0,-0.13333333,0,1333.3333)" />
    </g>
  </g>
</svg>
